# File produced by Open Asset Import Library (http://www.assimp.sf.net)
# (assimp v3.1.197435470)

mtllib Mur_Ouest.mtl

# 51 vertex positions
v  -54.4484 1.52588e-05 1097.92
v  -7.62939e-06 1.52588e-05 1097.92
v  -7.62939e-06 300 1097.92
v  -54.4484 300 1097.92
v  -7.62939e-06 1.52588e-05 589.338
v  -7.62939e-06 300 589.338
v  -7.62939e-06 1.52588e-05 -915.78
v  -54.4484 1.52588e-05 -915.78
v  -54.4484 300 -915.78
v  -7.62939e-06 300 -915.78
v  -54.4484 1.52588e-05 -589.338
v  -54.4484 300 -589.338
v  -54.4484 300 589.338
v  -7.62939e-06 1.52588e-05 -589.338
v  -7.62939e-06 1.52588e-05 0
v  -7.62939e-06 300 0
v  -7.62939e-06 300 -589.338
v  -238.448 300 -589.338
v  -238.448 1.52588e-05 -589.338
v  -238.448 1.52588e-05 0
v  -238.448 300 0
v  -54.4484 1.52588e-05 589.338
v  -54.4484 300 0
v  -54.4484 1.52588e-05 0
v  -238.448 300 589.338
v  -238.448 1.52588e-05 589.338
v  -243.448 17.9 -594.338
v  -243.448 1.52588e-05 -594.338
v  -243.448 1.52588e-05 594.338
v  -243.448 17.9 594.338
v  -59.4484 17.9 594.338
v  -59.4484 1.52588e-05 594.338
v  -59.4484 1.52588e-05 1098.3
v  -59.4484 17.9 1098.3
v  -59.4484 17.9 -594.338
v  -59.4484 1.52588e-05 -594.338
v  -59.4484 17.9 -915.78
v  -59.4484 1.52588e-05 -915.78
v  -238.448 20 589.338
v  -238.448 20 -589.338
v  -241.348 20 -592.238
v  -241.348 20 592.238
v  -54.4484 1.52588e-05 1098.3
v  -54.4484 20 1098.3
v  -57.3484 20 1098.3
v  -54.4484 20 589.338
v  -57.3484 20 592.238
v  -54.4484 20 -589.338
v  -57.9635 20 -592.853
v  -54.4484 20 -915.78
v  -57.3484 20 -915.78

# 127 UV coordinates
vt 0.510124 0.58896 0
vt 0.533664 0.58896 0
vt 0.533664 0.715301 0
vt 0.510124 0.715301 0
vt 0.00657339 0.993597 0
vt 0.00657339 0.867255 0
vt 0.226455 0.867255 0
vt 0.226455 0.993597 0
vt 0.30821 0.449812 0
vt 0.33175 0.449812 0
vt 0.33175 0.576154 0
vt 0.30821 0.576154 0
vt 0.355841 0.715301 0
vt 0.355841 0.58896 0
vt 0.496977 0.58896 0
vt 0.496977 0.715301 0
vt 0.969886 0.145551 0
vt 0.993427 0.145551 0
vt 0.993427 0.359733 0
vt 0.969886 0.359733 0
vt 0.0861251 0.00640297 0
vt 0.109666 0.00640297 0
vt 0.109666 0.14388 0
vt 0.0861251 0.14388 0
vt 0.481253 0.867255 0
vt 0.481253 0.993597 0
vt 0.736052 0.993597 0
vt 0.736052 0.867255 0
vt 0.877187 0.867255 0
vt 0.877187 0.993597 0
vt 0.122813 0.854449 0
vt 0.122813 0.728107 0
vt 0.377611 0.728107 0
vt 0.377611 0.854449 0
vt 0.122813 0.715301 0
vt 0.122813 0.58896 0
vt 0.342694 0.58896 0
vt 0.342694 0.715301 0
vt 0.993427 0.607926 0
vt 0.969886 0.607926 0
vt 0.969886 0.85612 0
vt 0.993427 0.85612 0
vt 0.993427 0.993597 0
vt 0.969886 0.993597 0
vt 0.109666 0.392074 0
vt 0.0861251 0.392074 0
vt 0.0861251 0.640267 0
vt 0.109666 0.640267 0
vt 0.109666 0.854449 0
vt 0.0861251 0.854449 0
vt 0.122813 0.576154 0
vt 0.122813 0.449812 0
vt 0.202364 0.449812 0
vt 0.202364 0.576154 0
vt 0.00657339 0.14388 0
vt 0.00657339 0.392074 0
vt 0.295063 0.449812 0
vt 0.295063 0.576154 0
vt 0.215511 0.576154 0
vt 0.215511 0.449812 0
vt 0.890334 0.359733 0
vt 0.890334 0.607926 0
vt 0.632409 0.728107 0
vt 0.632409 0.854449 0
vt 0.00657339 0.640267 0
vt 0.890334 0.85612 0
vt 0.260942 0.995585 0
vt 0.260942 0.986776 0
vt 0.994464 0.986776 0
vt 0.994464 0.995585 0
vt 0.260942 0.977946 0
vt 0.260942 0.969137 0
vt 0.571934 0.969137 0
vt 0.571934 0.977946 0
vt 0.260942 0.941635 0
vt 0.260942 0.932826 0
vt 0.374486 0.932826 0
vt 0.374486 0.941635 0
vt 0.260942 0.959274 0
vt 0.260942 0.950465 0
vt 0.459301 0.950465 0
vt 0.459301 0.959274 0
vt 0.374486 0.915187 0
vt 0.374486 0.923996 0
vt 0.260942 0.923996 0
vt 0.260942 0.915187 0
vt 0.136324 0.165063 0
vt 0.136324 0.745113 0
vt 0.133239 0.747574 0
vt 0.133239 0.162603 0
vt 0.00862166 0.254887 0
vt 0.00862166 0.834937 0
vt 0.00683209 0.836364 0
vt 0.00683209 0.25346 0
vt 0.249869 0.745113 0
vt 0.249869 0.995585 0
vt 0.246784 0.995585 0
vt 0.246784 0.747574 0
vt 0.264027 0.896514 0
vt 0.264027 0.906357 0
vt 0.262237 0.906357 0
vt 0.260942 0.905323 0
vt 0.260942 0.896514 0
vt 0.122167 0.00441504 0
vt 0.122167 0.254887 0
vt 0.120377 0.25346 0
vt 0.120377 0.00441504 0
vt 0.249869 0.165063 0
vt 0.246784 0.162603 0
vt 0.122167 0.834937 0
vt 0.119997 0.836666 0
vt 0.260942 0.887684 0
vt 0.260942 0.877842 0
vt 0.264027 0.877842 0
vt 0.264027 0.886651 0
vt 0.262731 0.887684 0
vt 0.249869 0.00441504 0
vt 0.246784 0.00441504 0
vt 0.122167 0.995585 0
vt 0.120377 0.995585 0
vt 0.0055362 0.837397 0
vt 0.0055362 0.252426 0
vt 0.119081 0.252426 0
vt 0.119081 0.00441504 0
vt 0.119081 0.837397 0
vt 0.460217 0.960307 0
vt 0.260942 0.960307 0

# 11 vertex normals
vn 0 0 1
vn 1 0 0
vn 0 0 -1
vn -1 0 0
vn 0 1 0
vn 0 -1 0
vn -0.707108 0.707105 0
vn -0.707107 0.707107 0
vn -0.00137268 0.64516 -0.764046
vn -0.764559 0.644553 -0.000675848
vn 0 0.707108 0.707106

# Mesh 'Mur_Ouest_Mur_Ouest' with 48 faces
g Mur_Ouest_Mur_Ouest
usemtl Mur_Ouest
f  1/1/1 2/2/1 3/3/1
f  3/3/1 4/4/1 1/1/1
f  3/5/2 2/6/2 5/7/2
f  5/7/2 6/8/2 3/5/2
f  7/9/3 8/10/3 9/11/3
f  9/11/3 10/12/3 7/9/3
f  9/13/4 8/14/4 11/15/4
f  11/15/4 12/16/4 9/13/4
f  4/17/5 3/18/5 6/19/5
f  6/19/5 13/20/5 4/17/5
f  8/21/6 7/22/6 14/23/6
f  14/23/6 11/24/6 8/21/6
f  6/8/2 5/7/2 15/25/2
f  15/25/2 16/26/2 6/8/2
f  17/27/2 14/28/2 7/29/2
f  7/29/2 10/30/2 17/27/2
f  18/31/4 19/32/4 20/33/4
f  20/33/4 21/34/4 18/31/4
f  13/35/4 22/36/4 1/37/4
f  1/37/4 4/38/4 13/35/4
f  13/20/5 6/19/5 16/39/5
f  16/39/5 23/40/5 13/20/5
f  12/41/5 17/42/5 10/43/5
f  10/43/5 9/44/5 12/41/5
f  11/24/6 14/23/6 15/45/6
f  15/45/6 24/46/6 11/24/6
f  22/47/6 5/48/6 2/49/6
f  2/49/6 1/50/6 22/47/6
f  12/51/3 11/52/3 19/53/3
f  19/53/3 18/54/3 12/51/3
f  19/55/6 11/24/6 24/46/6
f  24/46/6 20/56/6 19/55/6
f  22/57/1 13/58/1 25/59/1
f  25/59/1 26/60/1 22/57/1
f  25/61/5 13/20/5 23/40/5
f  23/40/5 21/62/5 25/61/5
f  16/26/2 15/25/2 14/28/2
f  14/28/2 17/27/2 16/26/2
f  21/34/4 20/33/4 26/63/4
f  26/63/4 25/64/4 21/34/4
f  23/40/5 16/39/5 17/42/5
f  17/42/5 12/41/5 23/40/5
f  24/46/6 15/45/6 5/48/6
f  5/48/6 22/47/6 24/46/6
f  20/56/6 24/46/6 22/47/6
f  22/47/6 26/65/6 20/56/6
f  21/62/5 23/40/5 12/41/5
f  12/41/5 18/66/5 21/62/5

# Mesh 'Mur_Ouest_Plinte_Mur_Ouest_Plinte' with 46 faces
g Mur_Ouest_Plinte_Mur_Ouest_Plinte
usemtl Mur_Ouest_Plinte
f  27/67/4 28/68/4 29/69/4
f  29/69/4 30/70/4 27/67/4
f  31/71/4 32/72/4 33/73/4
f  33/73/4 34/74/4 31/71/4
f  35/75/3 36/76/3 28/77/3
f  28/77/3 27/78/3 35/75/3
f  37/79/4 38/80/4 36/81/4
f  36/81/4 35/82/4 37/79/4
f  32/83/1 31/84/1 30/85/1
f  30/85/1 29/86/1 32/83/1
f  19/87/6 26/88/6 29/89/6
f  29/89/6 28/90/6 19/87/6
f  39/91/5 40/92/5 41/93/5
f  41/93/5 42/94/5 39/91/5
f  22/95/6 43/96/6 33/97/6
f  33/97/6 32/98/6 22/95/6
f  43/99/1 44/100/1 45/101/1
f  43/99/1 45/101/1 34/102/1
f  34/102/1 33/103/1 43/99/1
f  44/104/5 46/105/5 47/106/5
f  47/106/5 45/107/5 44/104/5
f  11/108/6 19/87/6 28/90/6
f  28/90/6 36/109/6 11/108/6
f  40/92/5 48/110/5 49/111/5
f  49/111/5 41/93/5 40/92/5
f  50/112/3 8/113/3 38/114/3
f  50/112/3 38/114/3 37/115/3
f  37/115/3 51/116/3 50/112/3
f  8/117/6 11/108/6 36/109/6
f  36/109/6 38/118/6 8/117/6
f  48/110/5 50/119/5 51/120/5
f  51/120/5 49/111/5 48/110/5
f  46/105/5 39/91/5 42/94/5
f  42/94/5 47/106/5 46/105/5
f  26/88/6 22/95/6 32/98/6
f  32/98/6 29/89/6 26/88/6
f  42/94/7 41/93/7 27/121/7
f  27/121/7 30/122/7 42/94/7
f  45/107/8 47/106/8 31/123/8
f  31/123/8 34/124/8 45/107/8
f  41/93/9 49/111/9 35/125/9
f  35/125/9 27/121/9 41/93/9
f  49/126/10 51/127/10 37/79/10
f  37/79/10 35/82/10 49/126/10
f  47/106/11 42/94/11 30/122/11
f  30/122/11 31/123/11 47/106/11

