# File produced by Open Asset Import Library (http://www.assimp.sf.net)
# (assimp v3.1.197435470)

mtllib Unity 5.mtl

# 120 vertex positions
v  -6.87656 346.017 -11.9106
v  -6.87656 260.451 -11.9106
v  -9.67812 260.451 -9.7049
v  -9.67812 346.017 -9.7049
v  -11.843 260.451 -6.83754
v  -11.843 346.017 -6.83754
v  -6.87656 174.885 -11.9106
v  -9.67812 174.885 -9.7049
v  -11.843 174.885 -6.83754
v  -13.7531 346.017 0
v  -13.2437 346.017 -3.52905
v  -13.2437 260.451 -3.52905
v  -13.7531 260.451 0
v  -13.2437 174.885 -3.52905
v  -13.7531 174.885 0
v  -13.7531 3.75345 0
v  -13.7531 89.3194 0
v  -13.2437 89.3194 -3.52905
v  -13.2437 3.75345 -3.52905
v  -11.843 89.3194 -6.83754
v  -11.843 3.75345 -6.83754
v  -6.87656 3.75345 -11.9106
v  -9.67812 3.75345 -9.7049
v  -9.67812 89.3194 -9.7049
v  -6.87656 89.3194 -11.9106
v  13.7531 346.017 0
v  13.7531 260.451 0
v  13.2437 260.451 -3.52905
v  13.2437 346.017 -3.52905
v  11.843 260.451 -6.83754
v  11.843 346.017 -6.83754
v  13.7531 174.885 0
v  13.2437 174.885 -3.52905
v  11.843 174.885 -6.83754
v  6.87656 346.017 -11.9106
v  9.67812 346.017 -9.7049
v  9.67813 260.451 -9.7049
v  6.87656 260.451 -11.9106
v  9.67813 174.885 -9.7049
v  6.87656 174.885 -11.9106
v  6.87656 3.75345 -11.9106
v  6.87656 89.3194 -11.9106
v  9.67813 89.3194 -9.7049
v  9.67812 3.75345 -9.7049
v  11.843 89.3194 -6.83754
v  11.843 3.75345 -6.83754
v  13.7531 3.75345 0
v  13.2437 3.75345 -3.52905
v  13.2437 89.3194 -3.52905
v  13.7531 89.3194 0
v  -13.2437 260.451 3.52905
v  -13.2437 346.017 3.52905
v  -11.843 260.451 6.83754
v  -11.843 346.017 6.83754
v  -13.2437 174.885 3.52905
v  -11.843 174.885 6.83754
v  -6.87656 346.017 11.9106
v  -9.67812 346.017 9.7049
v  -9.67813 260.451 9.7049
v  -6.87656 260.451 11.9106
v  -9.67813 174.885 9.7049
v  -6.87656 174.885 11.9106
v  -6.87656 3.75345 11.9106
v  -6.87656 89.3194 11.9106
v  -9.67813 89.3194 9.7049
v  -9.67812 3.75345 9.7049
v  -11.843 89.3194 6.83754
v  -11.843 3.75345 6.83754
v  -13.2437 3.75345 3.52905
v  -13.2437 89.3194 3.52905
v  6.87656 346.017 11.9106
v  6.87656 260.451 11.9106
v  9.67812 260.451 9.7049
v  9.67812 346.017 9.7049
v  11.843 260.451 6.83754
v  11.843 346.017 6.83754
v  6.87656 174.885 11.9106
v  9.67812 174.885 9.7049
v  11.843 174.885 6.83754
v  13.2437 346.017 3.52905
v  13.2437 260.451 3.52905
v  13.2437 174.885 3.52905
v  13.2437 89.3194 3.52905
v  13.2437 3.75345 3.52905
v  11.843 89.3194 6.83754
v  11.843 3.75345 6.83754
v  6.87656 3.75345 11.9106
v  9.67812 3.75345 9.7049
v  9.67812 89.3194 9.7049
v  6.87656 89.3194 11.9106
v  3.56562 260.451 -13.2339
v  3.56562 346.017 -13.2339
v  0 260.451 -13.6751
v  0 346.017 -13.6751
v  3.56562 174.885 -13.2339
v  0 174.885 -13.6751
v  -3.56562 346.017 -13.2339
v  -3.56562 260.451 -13.2339
v  -3.56562 174.885 -13.2339
v  -3.56562 89.3194 -13.2339
v  -3.56562 3.75345 -13.2339
v  0 89.3194 -13.6751
v  0 3.75345 -13.6751
v  3.56562 3.75345 -13.2339
v  3.56562 89.3194 -13.2339
v  -3.56562 260.451 13.2339
v  -3.56562 346.017 13.2339
v  0 260.451 13.6751
v  0 346.017 13.6751
v  -3.56562 174.885 13.2339
v  0 174.885 13.6751
v  3.56562 346.017 13.2339
v  3.56562 260.451 13.2339
v  3.56562 174.885 13.2339
v  3.56562 89.3194 13.2339
v  3.56562 3.75345 13.2339
v  0 89.3194 13.6751
v  0 3.75345 13.6751
v  -3.56562 3.75345 13.2339
v  -3.56562 89.3194 13.2339

# 140 UV coordinates
vt 0.701374 0.995285 0
vt 0.701374 0.747643 0
vt 0.732308 0.747643 0
vt 0.732308 0.995285 0
vt 0.0179873 0.995285 0
vt 0.0179873 0.747643 0
vt 0.0496483 0.747643 0
vt 0.0496483 0.995285 0
vt 0.701374 0.5 0
vt 0.732308 0.5 0
vt 0.0179873 0.5 0
vt 0.0496483 0.5 0
vt 0.125148 0.995285 0
vt 0.0861803 0.995285 0
vt 0.0861803 0.747643 0
vt 0.125148 0.747643 0
vt 0.0861803 0.5 0
vt 0.125148 0.5 0
vt 0.125148 0.00471461 0
vt 0.125148 0.252357 0
vt 0.0861803 0.252357 0
vt 0.0861803 0.00471461 0
vt 0.0496483 0.252357 0
vt 0.0496483 0.00471461 0
vt 0.701374 0.00471461 0
vt 0.732308 0.00471461 0
vt 0.732308 0.252357 0
vt 0.701374 0.252357 0
vt 0.0179873 0.00471461 0
vt 0.0179873 0.252357 0
vt 0.375443 0.995285 0
vt 0.375443 0.747643 0
vt 0.414411 0.747643 0
vt 0.414411 0.995285 0
vt 0.450943 0.747643 0
vt 0.450943 0.995285 0
vt 0.375443 0.5 0
vt 0.414411 0.5 0
vt 0.450943 0.5 0
vt 0.549513 0.995285 0
vt 0.518579 0.995285 0
vt 0.518578 0.747643 0
vt 0.549513 0.747643 0
vt 0.518578 0.5 0
vt 0.549513 0.5 0
vt 0.482604 0.995285 0
vt 0.482604 0.747643 0
vt 0.482604 0.5 0
vt 0.549513 0.00471461 0
vt 0.549513 0.252357 0
vt 0.518578 0.252357 0
vt 0.518579 0.00471461 0
vt 0.482604 0.00471461 0
vt 0.482604 0.252357 0
vt 0.450943 0.252357 0
vt 0.450943 0.00471461 0
vt 0.375443 0.00471461 0
vt 0.414411 0.00471461 0
vt 0.414411 0.252357 0
vt 0.375443 0.252357 0
vt 0.164115 0.747643 0
vt 0.164115 0.995285 0
vt 0.200647 0.747643 0
vt 0.200647 0.995285 0
vt 0.164115 0.5 0
vt 0.200647 0.5 0
vt 0.799217 0.995285 0
vt 0.768283 0.995285 0
vt 0.768283 0.747643 0
vt 0.799217 0.747643 0
vt 0.768283 0.5 0
vt 0.799217 0.5 0
vt 0.232308 0.995285 0
vt 0.232308 0.747643 0
vt 0.232308 0.5 0
vt 0.799217 0.00471461 0
vt 0.799217 0.252357 0
vt 0.768283 0.252357 0
vt 0.768283 0.00471461 0
vt 0.232308 0.00471461 0
vt 0.232308 0.252357 0
vt 0.200647 0.252357 0
vt 0.200647 0.00471461 0
vt 0.164115 0.00471461 0
vt 0.164115 0.252357 0
vt 0.951078 0.995285 0
vt 0.951078 0.747643 0
vt 0.982013 0.747643 0
vt 0.982013 0.995285 0
vt 0.268283 0.995285 0
vt 0.268283 0.747643 0
vt 0.299944 0.747643 0
vt 0.299944 0.995285 0
vt 0.951078 0.5 0
vt 0.982013 0.5 0
vt 0.268283 0.5 0
vt 0.299944 0.5 0
vt 0.336476 0.995285 0
vt 0.336476 0.747643 0
vt 0.336476 0.5 0
vt 0.336476 0.252357 0
vt 0.336476 0.00471461 0
vt 0.299944 0.252357 0
vt 0.299944 0.00471461 0
vt 0.951078 0.00471461 0
vt 0.982013 0.00471461 0
vt 0.982013 0.252357 0
vt 0.951078 0.252357 0
vt 0.268283 0.00471461 0
vt 0.268283 0.252357 0
vt 0.586072 0.747643 0
vt 0.586072 0.995285 0
vt 0.625443 0.747643 0
vt 0.625443 0.995285 0
vt 0.586072 0.5 0
vt 0.625443 0.5 0
vt 0.664815 0.995285 0
vt 0.664815 0.747643 0
vt 0.664815 0.5 0
vt 0.664815 0.252357 0
vt 0.664815 0.00471461 0
vt 0.625443 0.252357 0
vt 0.625443 0.00471461 0
vt 0.586072 0.00471461 0
vt 0.586072 0.252357 0
vt 0.835777 0.747643 0
vt 0.835777 0.995285 0
vt 0.875148 0.747643 0
vt 0.875148 0.995285 0
vt 0.835777 0.5 0
vt 0.875148 0.5 0
vt 0.914519 0.995285 0
vt 0.914519 0.747643 0
vt 0.914519 0.5 0
vt 0.914519 0.252357 0
vt 0.914519 0.00471461 0
vt 0.875148 0.252357 0
vt 0.875148 0.00471461 0
vt 0.835777 0.00471461 0
vt 0.835777 0.252357 0

# 87 vertex normals
vn -0.5 0 -0.866025
vn -0.5 -1.39318e-09 -0.866025
vn -0.714232 -8.6898e-10 -0.699909
vn -0.714232 0 -0.699909
vn -0.866025 0 -0.5
vn -0.714232 0 -0.699909
vn -1 0 0
vn -0.963255 -0 -0.268588
vn -0.963255 0 -0.268588
vn -0.5 0 -0.866025
vn -0.714232 8.6898e-10 -0.699909
vn -0.5 1.39319e-09 -0.866025
vn 1 0 0
vn 1 0 3.7639e-09
vn 0.963255 0 -0.268588
vn 0.866025 1.12035e-09 -0.5
vn 0.866025 2.24071e-09 -0.5
vn 0.866025 0 -0.5
vn 0.5 1.5791e-09 -0.866025
vn 0.714232 3.81818e-09 -0.699909
vn 0.714232 1.90909e-09 -0.699909
vn 0.5 7.8955e-10 -0.866025
vn 0.714232 0 -0.699909
vn 0.5 0 -0.866026
vn 0.5 -1.5791e-09 -0.866025
vn 0.5 -7.8955e-10 -0.866025
vn 0.714232 -1.90909e-09 -0.699909
vn 0.714232 -3.81818e-09 -0.699909
vn 0.866025 -1.12035e-09 -0.5
vn 0.866025 -2.24071e-09 -0.5
vn -0.963255 0 0.268588
vn -0.866025 1.12035e-09 0.5
vn -0.866025 2.24071e-09 0.5
vn -0.866025 0 0.5
vn -0.5 1.5791e-09 0.866025
vn -0.714232 3.81818e-09 0.699909
vn -0.714232 1.90909e-09 0.699909
vn -0.5 7.8955e-10 0.866025
vn -0.714232 0 0.699909
vn -0.5 0 0.866026
vn -0.5 -1.5791e-09 0.866025
vn -0.5 -7.8955e-10 0.866025
vn -0.714232 -1.90909e-09 0.699909
vn -0.714232 -3.81818e-09 0.699909
vn -0.866025 -1.12035e-09 0.5
vn -0.866025 -2.24071e-09 0.5
vn 0.5 0 0.866025
vn 0.5 -1.39318e-09 0.866025
vn 0.714232 -8.6898e-10 0.699909
vn 0.714232 0 0.699909
vn 0.866025 0 0.5
vn 0.714232 0 0.699909
vn 0.963255 0 0.268588
vn 0.963255 0 0.268588
vn 0.5 0 0.866025
vn 0.714232 8.6898e-10 0.699909
vn 0.5 1.39319e-09 0.866025
vn 0.249024 1.36849e-09 -0.968497
vn 0.249023 2.73699e-09 -0.968497
vn 0 2.73509e-09 -1
vn 0 5.47018e-09 -1
vn 0.249024 0 -0.968497
vn 0 0 -1
vn -0.249023 2.73699e-09 -0.968497
vn -0.249024 8.471e-10 -0.968497
vn -0.249024 0 -0.968497
vn -0.249024 -8.471e-10 -0.968497
vn -0.249023 -2.73699e-09 -0.968497
vn 0 -2.73509e-09 -1
vn 0 -5.47018e-09 -1
vn 0.249023 -2.73699e-09 -0.968497
vn 0.249024 -1.36849e-09 -0.968497
vn -0.249024 1.36849e-09 0.968497
vn -0.249023 2.73699e-09 0.968497
vn 0 2.73509e-09 1
vn 0 5.47018e-09 1
vn -0.249024 0 0.968497
vn 0 0 1
vn 0.249023 2.73699e-09 0.968497
vn 0.249024 8.471e-10 0.968497
vn 0.249024 0 0.968497
vn 0.249024 -8.471e-10 0.968497
vn 0.249023 -2.73699e-09 0.968497
vn 0 -2.73509e-09 1
vn 0 -5.47018e-09 1
vn -0.249023 -2.73699e-09 0.968497
vn -0.249024 -1.36849e-09 0.968497

# Mesh 'Cylinder.5_Cylinder.5' with 192 faces
g Cylinder.5_Cylinder.5
usemtl Pylone
f  1/1/1 2/2/2 3/3/3
f  3/3/3 4/4/4 1/1/1
f  4/5/4 3/6/3 5/7/5
f  5/7/5 6/8/5 4/5/4
f  2/2/2 7/9/1 8/10/6
f  8/10/6 3/3/3 2/2/2
f  3/6/3 8/11/6 9/12/5
f  9/12/5 5/7/5 3/6/3
f  10/13/7 11/14/8 12/15/8
f  12/15/8 13/16/7 10/13/7
f  13/16/7 12/15/8 14/17/9
f  14/17/9 15/18/7 13/16/7
f  11/14/8 6/8/5 5/7/5
f  5/7/5 12/15/8 11/14/8
f  12/15/8 5/7/5 9/12/5
f  9/12/5 14/17/9 12/15/8
f  16/19/7 17/20/7 18/21/8
f  18/21/8 19/22/8 16/19/7
f  19/22/8 18/21/8 20/23/5
f  20/23/5 21/24/5 19/22/8
f  17/20/7 15/18/7 14/17/9
f  14/17/9 18/21/8 17/20/7
f  18/21/8 14/17/9 9/12/5
f  9/12/5 20/23/5 18/21/8
f  22/25/10 23/26/6 24/27/11
f  24/27/11 25/28/12 22/25/10
f  25/28/12 24/27/11 8/10/6
f  8/10/6 7/9/1 25/28/12
f  23/29/6 21/24/5 20/23/5
f  20/23/5 24/30/11 23/29/6
f  24/30/11 20/23/5 9/12/5
f  9/12/5 8/11/6 24/30/11
f  26/31/13 27/32/14 28/33/15
f  28/33/15 29/34/15 26/31/13
f  29/34/15 28/33/15 30/35/16
f  30/35/16 31/36/17 29/34/15
f  27/32/14 32/37/14 33/38/15
f  33/38/15 28/33/15 27/32/14
f  28/33/15 33/38/15 34/39/18
f  34/39/18 30/35/16 28/33/15
f  35/40/19 36/41/20 37/42/21
f  37/42/21 38/43/22 35/40/19
f  38/43/22 37/42/21 39/44/23
f  39/44/23 40/45/24 38/43/22
f  36/46/20 31/36/17 30/35/16
f  30/35/16 37/47/21 36/46/20
f  37/47/21 30/35/16 34/39/18
f  34/39/18 39/48/23 37/47/21
f  41/49/25 42/50/26 43/51/27
f  43/51/27 44/52/28 41/49/25
f  44/53/28 43/54/27 45/55/29
f  45/55/29 46/56/30 44/53/28
f  42/50/26 40/45/24 39/44/23
f  39/44/23 43/51/27 42/50/26
f  43/54/27 39/48/23 34/39/18
f  34/39/18 45/55/29 43/54/27
f  47/57/13 48/58/15 49/59/15
f  49/59/15 50/60/13 47/57/13
f  50/60/13 49/59/15 33/38/15
f  33/38/15 32/37/14 50/60/13
f  48/58/15 46/56/30 45/55/29
f  45/55/29 49/59/15 48/58/15
f  49/59/15 45/55/29 34/39/18
f  34/39/18 33/38/15 49/59/15
f  10/13/7 13/16/7 51/61/31
f  51/61/31 52/62/31 10/13/7
f  52/62/31 51/61/31 53/63/32
f  53/63/32 54/64/33 52/62/31
f  13/16/7 15/18/7 55/65/31
f  55/65/31 51/61/31 13/16/7
f  51/61/31 55/65/31 56/66/34
f  56/66/34 53/63/32 51/61/31
f  57/67/35 58/68/36 59/69/37
f  59/69/37 60/70/38 57/67/35
f  60/70/38 59/69/37 61/71/39
f  61/71/39 62/72/40 60/70/38
f  58/73/36 54/64/33 53/63/32
f  53/63/32 59/74/37 58/73/36
f  59/74/37 53/63/32 56/66/34
f  56/66/34 61/75/39 59/74/37
f  63/76/41 64/77/42 65/78/43
f  65/78/43 66/79/44 63/76/41
f  66/80/44 65/81/43 67/82/45
f  67/82/45 68/83/46 66/80/44
f  64/77/42 62/72/40 61/71/39
f  61/71/39 65/78/43 64/77/42
f  65/81/43 61/75/39 56/66/34
f  56/66/34 67/82/45 65/81/43
f  16/19/7 69/84/31 70/85/31
f  70/85/31 17/20/7 16/19/7
f  17/20/7 70/85/31 55/65/31
f  55/65/31 15/18/7 17/20/7
f  69/84/31 68/83/46 67/82/45
f  67/82/45 70/85/31 69/84/31
f  70/85/31 67/82/45 56/66/34
f  56/66/34 55/65/31 70/85/31
f  71/86/47 72/87/48 73/88/49
f  73/88/49 74/89/50 71/86/47
f  74/90/50 73/91/49 75/92/51
f  75/92/51 76/93/51 74/90/50
f  72/87/48 77/94/47 78/95/52
f  78/95/52 73/88/49 72/87/48
f  73/91/49 78/96/52 79/97/51
f  79/97/51 75/92/51 73/91/49
f  26/31/13 80/98/53 81/99/53
f  81/99/53 27/32/14 26/31/13
f  27/32/14 81/99/53 82/100/54
f  82/100/54 32/37/14 27/32/14
f  80/98/53 76/93/51 75/92/51
f  75/92/51 81/99/53 80/98/53
f  81/99/53 75/92/51 79/97/51
f  79/97/51 82/100/54 81/99/53
f  47/57/13 50/60/13 83/101/53
f  83/101/53 84/102/53 47/57/13
f  84/102/53 83/101/53 85/103/51
f  85/103/51 86/104/51 84/102/53
f  50/60/13 32/37/14 82/100/54
f  82/100/54 83/101/53 50/60/13
f  83/101/53 82/100/54 79/97/51
f  79/97/51 85/103/51 83/101/53
f  87/105/55 88/106/52 89/107/56
f  89/107/56 90/108/57 87/105/55
f  90/108/57 89/107/56 78/95/52
f  78/95/52 77/94/47 90/108/57
f  88/109/52 86/104/51 85/103/51
f  85/103/51 89/110/56 88/109/52
f  89/110/56 85/103/51 79/97/51
f  79/97/51 78/96/52 89/110/56
f  35/40/19 38/43/22 91/111/58
f  91/111/58 92/112/59 35/40/19
f  92/112/59 91/111/58 93/113/60
f  93/113/60 94/114/61 92/112/59
f  38/43/22 40/45/24 95/115/62
f  95/115/62 91/111/58 38/43/22
f  91/111/58 95/115/62 96/116/63
f  96/116/63 93/113/60 91/111/58
f  1/1/1 97/117/64 98/118/65
f  98/118/65 2/2/2 1/1/1
f  2/2/2 98/118/65 99/119/66
f  99/119/66 7/9/1 2/2/2
f  97/117/64 94/114/61 93/113/60
f  93/113/60 98/118/65 97/117/64
f  98/118/65 93/113/60 96/116/63
f  96/116/63 99/119/66 98/118/65
f  22/25/10 25/28/12 100/120/67
f  100/120/67 101/121/68 22/25/10
f  101/121/68 100/120/67 102/122/69
f  102/122/69 103/123/70 101/121/68
f  25/28/12 7/9/1 99/119/66
f  99/119/66 100/120/67 25/28/12
f  100/120/67 99/119/66 96/116/63
f  96/116/63 102/122/69 100/120/67
f  41/49/25 104/124/71 105/125/72
f  105/125/72 42/50/26 41/49/25
f  42/50/26 105/125/72 95/115/62
f  95/115/62 40/45/24 42/50/26
f  104/124/71 103/123/70 102/122/69
f  102/122/69 105/125/72 104/124/71
f  105/125/72 102/122/69 96/116/63
f  96/116/63 95/115/62 105/125/72
f  57/67/35 60/70/38 106/126/73
f  106/126/73 107/127/74 57/67/35
f  107/127/74 106/126/73 108/128/75
f  108/128/75 109/129/76 107/127/74
f  60/70/38 62/72/40 110/130/77
f  110/130/77 106/126/73 60/70/38
f  106/126/73 110/130/77 111/131/78
f  111/131/78 108/128/75 106/126/73
f  71/86/47 112/132/79 113/133/80
f  113/133/80 72/87/48 71/86/47
f  72/87/48 113/133/80 114/134/81
f  114/134/81 77/94/47 72/87/48
f  112/132/79 109/129/76 108/128/75
f  108/128/75 113/133/80 112/132/79
f  113/133/80 108/128/75 111/131/78
f  111/131/78 114/134/81 113/133/80
f  87/105/55 90/108/57 115/135/82
f  115/135/82 116/136/83 87/105/55
f  116/136/83 115/135/82 117/137/84
f  117/137/84 118/138/85 116/136/83
f  90/108/57 77/94/47 114/134/81
f  114/134/81 115/135/82 90/108/57
f  115/135/82 114/134/81 111/131/78
f  111/131/78 117/137/84 115/135/82
f  63/76/41 119/139/86 120/140/87
f  120/140/87 64/77/42 63/76/41
f  64/77/42 120/140/87 110/130/77
f  110/130/77 62/72/40 64/77/42
f  119/139/86 118/138/85 117/137/84
f  117/137/84 120/140/87 119/139/86
f  120/140/87 117/137/84 111/131/78
f  111/131/78 110/130/77 120/140/87

